<svg width="194" height="194" viewBox="0 0 194 194" fill="none" xmlns="http://www.w3.org/2000/svg">
<path fill-rule="evenodd" clip-rule="evenodd" d="M30 0C13.4315 0 0 13.4315 0 30V164C0 180.569 13.4315 194 30 194H164C180.569 194 194 180.569 194 164V30C194 13.4315 180.569 0 164 0H30ZM24.168 27.56V121H39.144V91.944C39.144 87.336 39.016 82.472 38.76 77.352C38.504 72.232 38.1627 67.1973 37.736 62.248C37.3947 57.2133 37.0107 52.52 36.584 48.168C36.1573 43.7307 35.7307 39.8907 35.304 36.648L48.232 80.808H62.824L75.368 36.648C75.0267 40.0613 74.6 44.0293 74.088 48.552C73.6613 53.0747 73.2773 57.8533 72.936 62.888C72.5947 67.9227 72.296 72.9573 72.04 77.992C71.784 83.0267 71.656 87.6773 71.656 91.944V121H86.632V27.56H67.688L58.984 57.256C58.1307 60.2427 57.4053 62.9733 56.808 65.448C56.2107 67.9227 55.8267 69.7147 55.656 70.824C55.4853 69.7147 55.1013 67.9227 54.504 65.448C53.9067 62.9733 53.1387 60.2427 52.2 57.256L43.112 27.56H24.168ZM103.606 27.56V121H119.606V85.16H134.71C140.939 85.16 146.358 83.9653 150.966 81.576C155.574 79.1867 159.158 75.816 161.718 71.464C164.363 67.112 165.686 62.0773 165.686 56.36C165.686 50.5573 164.406 45.5227 161.846 41.256C159.286 36.904 155.659 33.5333 150.966 31.144C146.358 28.7547 140.939 27.56 134.71 27.56H103.606ZM134.71 70.696H119.606V42.024H134.71C139.147 42.024 142.689 43.304 145.334 45.864C148.065 48.424 149.43 51.9227 149.43 56.36C149.43 60.712 148.065 64.2107 145.334 66.856C142.689 69.416 139.147 70.696 134.71 70.696ZM31 152.3C29.46 152.3 28.12 152.04 26.98 151.52C25.84 151 24.96 150.27 24.34 149.33C23.72 148.39 23.41 147.28 23.41 146H27.91C27.91 146.74 28.19 147.33 28.75 147.77C29.33 148.19 30.11 148.4 31.09 148.4C32.03 148.4 32.76 148.19 33.28 147.77C33.82 147.35 34.09 146.77 34.09 146.03C34.09 145.39 33.89 144.84 33.49 144.38C33.09 143.92 32.53 143.61 31.81 143.45L29.59 142.94C27.73 142.5 26.28 141.69 25.24 140.51C24.22 139.31 23.71 137.85 23.71 136.13C23.71 134.85 24 133.74 24.58 132.8C25.18 131.84 26.02 131.1 27.1 130.58C28.18 130.06 29.46 129.8 30.94 129.8C33.18 129.8 34.95 130.36 36.25 131.48C37.57 132.58 38.23 134.07 38.23 135.95H33.73C33.73 135.25 33.48 134.7 32.98 134.3C32.5 133.9 31.8 133.7 30.88 133.7C30.02 133.7 29.36 133.9 28.9 134.3C28.44 134.68 28.21 135.23 28.21 135.95C28.21 136.59 28.39 137.14 28.75 137.6C29.13 138.04 29.66 138.34 30.34 138.5L32.68 139.04C34.62 139.48 36.09 140.28 37.09 141.44C38.09 142.58 38.59 144.04 38.59 145.82C38.59 147.1 38.27 148.23 37.63 149.21C37.01 150.19 36.13 150.95 34.99 151.49C33.87 152.03 32.54 152.3 31 152.3ZM48.9883 152.3C47.5283 152.3 46.2583 152.03 45.1783 151.49C44.0983 150.93 43.2583 150.16 42.6583 149.18C42.0783 148.18 41.7883 147.02 41.7883 145.7V141.8C41.7883 140.48 42.0783 139.33 42.6583 138.35C43.2583 137.35 44.0983 136.58 45.1783 136.04C46.2583 135.48 47.5283 135.2 48.9883 135.2C50.4683 135.2 51.7383 135.48 52.7983 136.04C53.8783 136.58 54.7083 137.35 55.2883 138.35C55.8883 139.33 56.1883 140.48 56.1883 141.8V145.7C56.1883 147.02 55.8883 148.18 55.2883 149.18C54.7083 150.16 53.8783 150.93 52.7983 151.49C51.7383 152.03 50.4683 152.3 48.9883 152.3ZM48.9883 148.4C49.8683 148.4 50.5383 148.17 50.9983 147.71C51.4583 147.23 51.6883 146.56 51.6883 145.7V141.8C51.6883 140.92 51.4583 140.25 50.9983 139.79C50.5383 139.33 49.8683 139.1 48.9883 139.1C48.1283 139.1 47.4583 139.33 46.9783 139.79C46.5183 140.25 46.2883 140.92 46.2883 141.8V145.7C46.2883 146.56 46.5183 147.23 46.9783 147.71C47.4583 148.17 48.1283 148.4 48.9883 148.4ZM63.8266 152V141.5H59.4466V137.45H63.8266V135.2C63.8266 133.66 64.3466 132.43 65.3866 131.51C66.4466 130.57 67.8266 130.1 69.5266 130.1H74.3566V134H69.6766C69.2766 134 68.9466 134.13 68.6866 134.39C68.4466 134.63 68.3266 134.95 68.3266 135.35V137.45H74.3566V141.5H68.3266V152H63.8266ZM86.7648 152C85.0848 152 83.7648 151.52 82.8048 150.56C81.8448 149.6 81.3648 148.28 81.3648 146.6V139.55H77.0148V135.5H81.3648V130.85H85.8648V135.5H92.0148V139.55H85.8648V146.6C85.8648 147.5 86.3148 147.95 87.2148 147.95H91.7148V152H86.7648ZM96.6531 152L94.2531 135.5H97.8531L99.0531 144.5C99.1531 145.16 99.2331 145.91 99.2931 146.75C99.3731 147.59 99.4331 148.28 99.4731 148.82C99.5331 148.28 99.6131 147.6 99.7131 146.78C99.8331 145.94 99.9431 145.18 100.043 144.5L101.423 135.5H104.543L105.863 144.5C105.963 145.18 106.063 145.94 106.163 146.78C106.283 147.62 106.373 148.31 106.433 148.85C106.473 148.29 106.533 147.59 106.613 146.75C106.713 145.89 106.803 145.14 106.883 144.5L108.143 135.5H111.653L109.223 152H104.723L103.493 142.7C103.413 142.14 103.323 141.47 103.223 140.69C103.123 139.91 103.043 139.26 102.983 138.74C102.903 139.26 102.813 139.91 102.713 140.69C102.613 141.47 102.523 142.14 102.443 142.7L101.183 152H96.6531ZM118.811 152.3C117.151 152.3 115.831 151.85 114.851 150.95C113.891 150.05 113.411 148.83 113.411 147.29C113.411 145.63 113.981 144.36 115.121 143.48C116.281 142.58 117.941 142.13 120.101 142.13H123.521V140.9C123.521 140.26 123.291 139.75 122.831 139.37C122.391 138.99 121.791 138.8 121.031 138.8C120.331 138.8 119.751 138.96 119.291 139.28C118.831 139.6 118.551 140.04 118.451 140.6H114.101C114.281 138.94 115.001 137.63 116.261 136.67C117.541 135.69 119.181 135.2 121.181 135.2C123.281 135.2 124.941 135.72 126.161 136.76C127.401 137.78 128.021 139.16 128.021 140.9V152H123.671V149.3H123.58C123.39 150.062 122.981 150.702 122.351 151.22C121.471 151.94 120.291 152.3 118.811 152.3ZM120.491 149C121.371 149 122.091 148.77 122.651 148.31C123.231 147.83 123.521 147.21 123.521 146.45V144.68H120.191C119.511 144.68 118.961 144.88 118.541 145.28C118.121 145.66 117.911 146.17 117.911 146.81C117.911 147.49 118.141 148.03 118.601 148.43C119.061 148.81 119.691 149 120.491 149ZM132.39 152V135.5H136.59V138.65H136.635C136.832 137.791 137.177 137.091 137.67 136.55C138.49 135.65 139.69 135.2 141.27 135.2C143.09 135.2 144.5 135.75 145.5 136.85C146.52 137.95 147.03 139.5 147.03 141.5V142.85H142.23V141.8C142.23 140.9 141.98 140.2 141.48 139.7C141 139.2 140.35 138.95 139.53 138.95C138.67 138.95 138.01 139.2 137.55 139.7C137.11 140.2 136.89 140.9 136.89 141.8V152H132.39ZM156.948 152.3C155.488 152.3 154.208 152.03 153.108 151.49C152.028 150.93 151.188 150.16 150.588 149.18C150.008 148.18 149.718 147.02 149.718 145.7V141.8C149.718 140.48 150.008 139.33 150.588 138.35C151.188 137.35 152.028 136.58 153.108 136.04C154.208 135.48 155.488 135.2 156.948 135.2C158.408 135.2 159.668 135.48 160.728 136.04C161.808 136.58 162.638 137.35 163.218 138.35C163.818 139.33 164.118 140.48 164.118 141.8V144.8H154.008V145.7C154.008 146.74 154.258 147.53 154.758 148.07C155.258 148.59 156.008 148.85 157.008 148.85C157.708 148.85 158.268 148.73 158.688 148.49C159.128 148.25 159.418 147.92 159.558 147.5H163.968C163.608 148.94 162.788 150.1 161.508 150.98C160.248 151.86 158.728 152.3 156.948 152.3ZM159.828 141.74V142.193L154.008 142.25V141.8C154.008 140.78 154.248 139.99 154.728 139.43C155.228 138.87 155.968 138.59 156.948 138.59C157.928 138.59 158.648 138.86 159.108 139.4C159.588 139.94 159.828 140.72 159.828 141.74ZM181.104 161L171 150.896L162.646 159.25H24C23.0335 159.25 22.25 160.034 22.25 161C22.25 161.966 23.0335 162.75 24 162.75H162.646L171 171.104L181.104 161Z" fill="#D9D9D9"/>
</svg>
