<?xml version="1.0" encoding="UTF-8"?>
<svg id="Layer_2" xmlns="http://www.w3.org/2000/svg" xmlns:xlink="http://www.w3.org/1999/xlink" viewBox="0 0 611.87 611.88">
  <defs>
    <style>
      .cls-1, .cls-2 {
        fill: #fff;
      }

      .cls-3 {
        letter-spacing: -.04em;
      }

      .cls-2 {
        font-family: OfeliaText-SemiboldItalic, 'Ofelia Text';
        font-size: 116.81px;
        font-style: italic;
        font-weight: 600;
      }

      .cls-4 {
        fill: url(#linear-gradient);
      }
    </style>
    <linearGradient id="linear-gradient" x1="558.31" y1="53.57" x2="43.95" y2="567.93" gradientUnits="userSpaceOnUse">
      <stop offset="0" stop-color="#b50058"/>
      <stop offset="1" stop-color="#342b8c"/>
    </linearGradient>
  </defs>
  <g id="Layer_1-2" data-name="Layer_1">
    <g>
      <path class="cls-4" d="M611.87,152.49v306.9c0,84.22-68.27,152.49-152.48,152.49H152.48C68.27,611.88,0,543.61,0,459.39V152.49C0,68.27,68.27,0,152.48,0h306.91c84.21,0,152.48,68.27,152.48,152.49Z"/>
      <g>
        <path class="cls-1" d="M174.11,233.62H22.22c-3.14,0-5.29,1.76-6.66,4.89L0,273.32v93.79h114.6c47.96,0,99.24-44.82,99.24-92.39,0-23.68-13.7-41.1-39.73-41.1ZM88.57,348.91H25.15l43.46-97.29h63.42c12.91,0,18.79,6.07,18.79,20.56,0,31.9-40.91,76.73-62.25,76.73Z"/>
        <path class="cls-1" d="M407.63,233.62h-92.2c-51.09,0-99.24,46.39-99.24,91.8,0,23.88,13.7,41.69,39.74,41.69h92.19c49.72,0,99.44-46.59,99.44-92.39,0-23.49-13.71-41.1-39.93-41.1ZM328.74,348.91h-40.52c-10.96,0-16.83-6.66-16.83-21.14,0-35.43,37.97-76.15,60.29-76.15h40.52c13.5,0,19.57,6.07,19.57,19.77,0,35.43-43.26,77.52-63.03,77.52Z"/>
        <path class="cls-1" d="M472.61,233.62c-2.15,0-3.33.78-4.11,2.15l-6.07,13.9c-.2.39-.39.78-.39.98,0,.58.98.97,2.54.97h63.42l-50.5,113.34c-.19.39-.19.78-.19.98,0,.78.58,1.17,2.15,1.17h53.04c2.16,0,3.33-.78,3.92-2.15l50.5-113.34h24.95v-18h-139.26Z"/>
      </g>
      <text class="cls-2" transform="translate(235.44 585.13)"><tspan class="cls-3" x="0" y="0">3</tspan><tspan x="61.79" y="0">9</tspan></text>
    </g>
  </g>
</svg>